<svg width="2256" height="412" viewBox="0 0 2256 412" fill="none" xmlns="http://www.w3.org/2000/svg">
<path d="M755.082 256.229C751.104 262.211 755.393 270.213 762.576 270.213H845.899C850.87 270.213 854.899 274.243 854.899 279.213V302.231C854.899 307.202 850.87 311.231 845.899 311.231H698.486C693.515 311.231 689.486 307.202 689.486 302.231V276.394C689.486 274.63 690.005 272.904 690.977 271.432L788.682 123.579C792.636 117.596 788.345 109.618 781.173 109.618H698.486C693.516 109.618 689.486 105.588 689.486 100.618V77.5996C689.486 72.629 693.516 68.5996 698.486 68.5996H845.899C850.87 68.5996 854.899 72.629 854.899 77.5996V103.422C854.899 105.195 854.375 106.929 853.393 108.406L755.082 256.229Z" fill="url(#paint0_linear_13_92)"/>
<path d="M856.002 214.248C856.002 194.782 859.824 177.517 867.469 162.454C875.346 147.391 885.887 135.804 899.093 127.693C912.53 119.582 927.472 115.527 943.921 115.527C958.285 115.527 970.795 118.424 981.452 124.217C985.616 126.433 989.458 128.869 992.978 131.525C998.212 135.473 1007.51 132.003 1007.51 125.447C1007.51 121.696 1010.56 118.655 1014.31 118.655H1047.51C1052.48 118.655 1056.51 122.685 1056.51 127.655V302.231C1056.51 307.202 1052.48 311.231 1047.51 311.231H1014.22C1010.51 311.231 1007.51 308.231 1007.51 304.53C1007.51 297.961 997.902 294.467 992.68 298.452C989.263 301.059 985.52 303.465 981.452 305.669C970.563 311.463 957.937 314.36 943.573 314.36C927.356 314.36 912.53 310.188 899.093 301.846C885.887 293.503 875.346 281.8 867.469 266.737C859.824 251.442 856.002 233.946 856.002 214.248ZM1007.51 214.943C1007.51 203.125 1005.2 193.044 1000.56 184.701C995.931 176.127 989.676 169.638 981.799 165.235C973.922 160.6 965.466 158.283 956.431 158.283C947.396 158.283 939.056 160.484 931.411 164.887C923.766 169.291 917.51 175.779 912.645 184.354C908.012 192.696 905.695 202.661 905.695 214.248C905.695 225.835 908.012 236.032 912.645 244.838C917.51 253.412 923.766 260.017 931.411 264.651C939.288 269.286 947.628 271.604 956.431 271.604C965.466 271.604 973.922 269.402 981.799 264.999C989.676 260.364 995.931 253.876 1000.56 245.533C1005.2 236.959 1007.51 226.762 1007.51 214.943Z" fill="url(#paint1_linear_13_92)"/>
<path d="M1124.88 124.381C1124.88 130.933 1134.37 134.43 1139.61 130.501C1142.96 127.989 1146.63 125.677 1150.6 123.565C1161.72 117.54 1174.34 114.527 1188.47 114.527C1204.92 114.527 1219.75 118.582 1232.95 126.693C1246.39 134.804 1256.93 146.391 1264.58 161.454C1272.45 176.286 1276.39 193.55 1276.39 213.248C1276.39 232.946 1272.45 250.442 1264.58 265.737C1256.93 280.8 1246.39 292.503 1232.95 300.846C1219.75 309.188 1204.92 313.36 1188.47 313.36C1174.34 313.36 1161.83 310.463 1150.94 304.669C1148.66 303.428 1146.47 302.118 1144.37 300.739C1137.17 296.015 1124.88 300.793 1124.88 309.404V393C1124.88 397.971 1120.85 402 1115.88 402H1085.23C1080.26 402 1076.23 397.971 1076.23 393V126.655C1076.23 121.685 1080.26 117.655 1085.23 117.655H1118.15C1121.87 117.655 1124.88 120.667 1124.88 124.381ZM1226.7 213.248C1226.7 201.661 1224.27 191.696 1219.4 183.354C1214.77 174.779 1208.51 168.291 1200.64 163.887C1192.99 159.484 1184.65 157.283 1175.62 157.283C1166.81 157.283 1158.47 159.6 1150.6 164.235C1142.95 168.638 1136.7 175.127 1131.83 183.701C1127.2 192.276 1124.88 202.356 1124.88 213.943C1124.88 225.53 1127.2 235.611 1131.83 244.185C1136.7 252.76 1142.95 259.364 1150.6 263.999C1158.47 268.402 1166.81 270.604 1175.62 270.604C1184.65 270.604 1192.99 268.286 1200.64 263.651C1208.51 259.017 1214.77 252.412 1219.4 243.838C1224.27 235.263 1226.7 225.067 1226.7 213.248Z" fill="url(#paint2_linear_13_92)"/>
<path d="M1451.08 167.084C1445.24 174.414 1446.17 197.062 1452.47 203.998C1453.43 205.052 1454.36 206.151 1455.27 207.296C1464.07 218.419 1468.47 231.165 1468.47 245.533C1468.47 258.51 1465.23 269.981 1458.74 279.946C1452.49 289.679 1443.34 297.327 1431.29 302.888C1419.24 308.45 1404.99 311.231 1388.55 311.231H1292.95C1287.98 311.231 1283.95 307.202 1283.95 302.231V77.5996C1283.95 72.629 1287.98 68.5996 1292.95 68.5996H1384.03C1400.48 68.5996 1414.61 71.2646 1426.42 76.5946C1438.47 81.9246 1447.51 89.3403 1453.53 98.8416C1459.78 108.343 1462.91 119.119 1462.91 131.169C1462.91 145.305 1459.09 157.124 1451.44 166.626C1451.32 166.779 1451.2 166.932 1451.08 167.084ZM1332.6 159.711C1332.6 164.682 1336.63 168.711 1341.6 168.711H1377.08C1388.66 168.711 1397.58 166.162 1403.84 161.064C1410.09 155.734 1413.22 148.202 1413.22 138.469C1413.22 128.736 1410.09 121.205 1403.84 115.874C1397.58 110.544 1388.66 107.879 1377.08 107.879H1341.6C1336.63 107.879 1332.6 111.909 1332.6 116.879V159.711ZM1381.6 271.604C1393.41 271.604 1402.56 268.823 1409.05 263.261C1415.77 257.699 1419.13 249.82 1419.13 239.624C1419.13 229.195 1415.65 221.084 1408.7 215.291C1401.75 209.266 1392.37 206.253 1380.55 206.253H1341.6C1336.63 206.253 1332.6 210.282 1332.6 215.253V262.604C1332.6 267.574 1336.63 271.604 1341.6 271.604H1381.6Z" fill="url(#paint3_linear_13_92)"/>
<path d="M1528.1 125.236C1528.1 131.877 1538.12 135.193 1543.24 130.961C1546.1 128.593 1549.16 126.461 1552.42 124.565C1560.2 120.143 1568.79 117.409 1578.19 116.362C1583.13 115.812 1587.17 119.904 1587.17 124.874V157.973C1587.17 162.944 1583.14 166.973 1578.17 166.973H1574.32C1559.02 166.973 1547.44 170.565 1539.56 177.749C1531.92 184.933 1528.1 197.447 1528.1 215.291V302.231C1528.1 307.202 1524.07 311.231 1519.1 311.231H1488.45C1483.48 311.231 1479.45 307.202 1479.45 302.231V127.655C1479.45 122.685 1483.48 118.655 1488.45 118.655H1521.52C1525.15 118.655 1528.1 121.602 1528.1 125.236Z" fill="url(#paint4_linear_13_92)"/>
<path d="M1677.63 314.36C1659.09 314.36 1642.41 310.304 1627.59 302.193C1612.76 293.851 1601.06 282.148 1592.49 267.085C1584.15 252.022 1579.98 234.641 1579.98 214.943C1579.98 195.245 1584.26 177.865 1592.84 162.802C1601.64 147.739 1613.57 136.152 1628.63 128.041C1643.69 119.698 1660.48 115.527 1679.02 115.527C1697.55 115.527 1714.35 119.698 1729.41 128.041C1744.47 136.152 1756.28 147.739 1764.85 162.802C1773.66 177.865 1778.06 195.245 1778.06 214.943C1778.06 234.641 1773.54 252.022 1764.5 267.085C1755.7 282.148 1743.65 293.851 1728.36 302.193C1713.31 310.304 1696.39 314.36 1677.63 314.36ZM1677.63 271.951C1686.43 271.951 1694.66 269.866 1702.3 265.694C1710.18 261.291 1716.43 254.802 1721.07 246.228C1725.7 237.654 1728.02 227.225 1728.02 214.943C1728.02 196.636 1723.15 182.616 1713.42 172.882C1703.92 162.918 1692.22 157.935 1678.32 157.935C1664.42 157.935 1652.72 162.918 1643.22 172.882C1633.96 182.616 1629.32 196.636 1629.32 214.943C1629.32 233.251 1633.84 247.387 1642.88 257.352C1652.14 267.085 1663.73 271.951 1677.63 271.951Z" fill="url(#paint5_linear_13_92)"/>
<path d="M1904.26 311.231C1901.52 311.231 1898.93 309.982 1897.22 307.838L1850.64 249.337C1845.33 242.674 1834.6 246.426 1834.6 254.943V302.231C1834.6 307.202 1830.57 311.231 1825.6 311.231H1794.94C1789.97 311.231 1785.94 307.202 1785.94 302.231V63C1785.94 58.0294 1789.97 54 1794.94 54H1825.6C1830.57 54 1834.6 58.0294 1834.6 63V174.465C1834.6 182.997 1845.36 186.74 1850.65 180.05L1896.53 122.071C1898.24 119.914 1900.84 118.655 1903.59 118.655H1942.61C1950.35 118.655 1954.48 127.775 1949.37 133.591L1882.93 209.309C1879.94 212.725 1879.96 217.839 1882.98 221.232L1949.82 296.244C1954.99 302.045 1950.87 311.231 1943.1 311.231H1904.26Z" fill="url(#paint6_linear_13_92)"/>
<path d="M2140.05 210.772C2140.05 214.733 2139.9 218.469 2139.6 221.979C2139.22 226.362 2135.43 229.543 2131.03 229.543H2007.7C2002.43 229.543 1998.21 234.076 1999.43 239.198C2001.68 248.591 2006.04 256.265 2012.51 262.218C2021.09 270.097 2031.63 274.037 2044.14 274.037C2060.2 274.037 2072.15 267.902 2079.97 255.632C2081.81 252.741 2084.88 250.747 2088.31 250.747H2123.09C2129.12 250.747 2133.44 256.578 2130.97 262.076C2124.89 275.612 2115.63 287.13 2103.21 296.632C2087.46 308.45 2068.11 314.36 2045.18 314.36C2026.65 314.36 2009.97 310.304 1995.14 302.193C1980.54 293.851 1969.08 282.148 1960.73 267.085C1952.63 252.022 1948.57 234.641 1948.57 214.943C1948.57 195.014 1952.63 177.517 1960.73 162.454C1968.84 147.391 1980.2 135.804 1994.79 127.693C2009.39 119.582 2026.18 115.527 2045.18 115.527C2063.48 115.527 2079.81 119.466 2094.18 127.346C2108.77 135.225 2120.01 146.464 2127.89 161.064C2135.99 175.432 2140.05 192.001 2140.05 210.772ZM2080.49 196.868C2085.53 196.868 2089.71 192.692 2088.64 187.77C2086.84 179.425 2082.66 172.493 2076.11 166.973C2067.3 159.326 2056.53 155.502 2043.79 155.502C2031.74 155.502 2021.55 159.21 2013.21 166.626C2007.35 171.82 2003.12 178.528 2000.53 186.751C1998.88 191.974 2003.17 196.868 2008.64 196.868H2080.49Z" fill="url(#paint7_linear_13_92)"/>
<path d="M2196.41 125.236C2196.41 131.877 2206.43 135.193 2211.55 130.961C2214.41 128.593 2217.47 126.461 2220.74 124.565C2228.51 120.143 2237.1 117.409 2246.5 116.362C2251.44 115.812 2255.49 119.904 2255.49 124.874V157.973C2255.49 162.944 2251.46 166.973 2246.49 166.973H2242.63C2227.34 166.973 2215.75 170.565 2207.88 177.749C2200.23 184.933 2196.41 197.447 2196.41 215.291V302.231C2196.41 307.202 2192.38 311.231 2187.41 311.231H2156.76C2151.79 311.231 2147.76 307.202 2147.76 302.231V127.655C2147.76 122.685 2151.79 118.655 2156.76 118.655H2189.83C2193.46 118.655 2196.41 121.602 2196.41 125.236Z" fill="url(#paint8_linear_13_92)"/>
<path d="M160.329 0H232.073H571.185C602.418 0 621.601 34.195 605.321 60.8494L563.42 129.455L362.555 168.496L456.475 65.2981H192.478L123.482 179.081L232.073 114.158H344.046L126.956 292.243L524.115 209.137L64.9229 407.661C29.0291 423.179 -5.51356 383.276 14.9864 349.976L83.6146 238.495C77.3608 243.691 70.0625 247.608 62.1257 249.931L51.3811 253.077C16.2709 263.356 -13.0738 225.005 6.0273 193.804L112.969 19.1153C120.239 7.24032 133.16 0 147.084 0H160.329Z" fill="url(#paint9_linear_13_92)"/>
<defs>
<linearGradient id="paint0_linear_13_92" x1="1117.24" y1="0" x2="1117.24" y2="411.113" gradientUnits="userSpaceOnUse">
<stop stop-color="#4F46E5"/>
<stop offset="1" stop-color="#0093FB"/>
</linearGradient>
<linearGradient id="paint1_linear_13_92" x1="1117.24" y1="0" x2="1117.24" y2="411.113" gradientUnits="userSpaceOnUse">
<stop stop-color="#4F46E5"/>
<stop offset="1" stop-color="#0093FB"/>
</linearGradient>
<linearGradient id="paint2_linear_13_92" x1="1117.24" y1="0" x2="1117.24" y2="411.113" gradientUnits="userSpaceOnUse">
<stop stop-color="#4F46E5"/>
<stop offset="1" stop-color="#0093FB"/>
</linearGradient>
<linearGradient id="paint3_linear_13_92" x1="1117.24" y1="0" x2="1117.24" y2="411.113" gradientUnits="userSpaceOnUse">
<stop stop-color="#4F46E5"/>
<stop offset="1" stop-color="#0093FB"/>
</linearGradient>
<linearGradient id="paint4_linear_13_92" x1="1117.24" y1="0" x2="1117.24" y2="411.113" gradientUnits="userSpaceOnUse">
<stop stop-color="#4F46E5"/>
<stop offset="1" stop-color="#0093FB"/>
</linearGradient>
<linearGradient id="paint5_linear_13_92" x1="1117.24" y1="0" x2="1117.24" y2="411.113" gradientUnits="userSpaceOnUse">
<stop stop-color="#4F46E5"/>
<stop offset="1" stop-color="#0093FB"/>
</linearGradient>
<linearGradient id="paint6_linear_13_92" x1="1117.24" y1="0" x2="1117.24" y2="411.113" gradientUnits="userSpaceOnUse">
<stop stop-color="#4F46E5"/>
<stop offset="1" stop-color="#0093FB"/>
</linearGradient>
<linearGradient id="paint7_linear_13_92" x1="1117.24" y1="0" x2="1117.24" y2="411.113" gradientUnits="userSpaceOnUse">
<stop stop-color="#4F46E5"/>
<stop offset="1" stop-color="#0093FB"/>
</linearGradient>
<linearGradient id="paint8_linear_13_92" x1="1117.24" y1="0" x2="1117.24" y2="411.113" gradientUnits="userSpaceOnUse">
<stop stop-color="#4F46E5"/>
<stop offset="1" stop-color="#0093FB"/>
</linearGradient>
<linearGradient id="paint9_linear_13_92" x1="1117.24" y1="0" x2="1117.24" y2="411.113" gradientUnits="userSpaceOnUse">
<stop stop-color="#4F46E5"/>
<stop offset="1" stop-color="#0093FB"/>
</linearGradient>
</defs>
</svg>
