<svg width="174" height="117" viewBox="0 0 174 117" fill="none" xmlns="http://www.w3.org/2000/svg">
<path d="M45.636 0H66.0571H162.582C171.472 0 176.932 9.73165 172.298 17.3173L160.371 36.8419L103.197 47.9529L129.931 18.5834H54.7867L35.1477 50.9653L66.0571 32.4884H97.9289L36.1367 83.1704L149.184 59.5188L18.4796 116.017C8.26284 120.434 -1.56938 109.078 4.26571 99.6006L23.8 67.8739C22.0199 69.3529 19.9425 70.4674 17.6834 71.1287L14.6251 72.0239C4.63133 74.9492 -3.72133 64.0348 1.71561 55.1551L32.1554 5.44009C34.2247 2.06055 37.9027 0 41.8659 0H45.636Z" fill="url(#paint0_linear_14_7)"/>
<defs>
<linearGradient id="paint0_linear_14_7" x1="423.5" y1="-41.5" x2="246" y2="177" gradientUnits="userSpaceOnUse">
<stop stop-color="#6E29DA"/>
<stop offset="1" stop-color="#8A5BF5"/>
</linearGradient>
</defs>
</svg>
